0
SECTION
2
HEADER
9
$INSUNITS
70
4
9
$ACADVER
1
AC1014
9
$HANDSEED
5
FFFF
0
ENDSEC
0
SECTION
2
TABLES
0
TABLE
2
VPORT
5
8
100
AcDbSymbolTable
0
ENDTAB
0
TABLE
2
LTYPE
5
5
100
AcDbSymbolTable
0
LTYPE
5
14
100
AcDbSymbolTableRecord
100
AcDbLinetypeTableRecord
2
BYBLOCK
70
0
0
LTYPE
5
15
100
AcDbSymbolTableRecord
100
AcDbLinetypeTableRecord
2
BYLAYER
70
0
0
LTYPE
5
16
100
AcDbSymbolTableRecord
100
AcDbLinetypeTableRecord
2
DASHED
70
0
3
Dashed __ __ __ __ __ __ __ __ __ __ __ __ __ _
72
65
73
2
40
0.75
49
0.5
74
0
49
-0.25
74
0
0
ENDTAB
0
TABLE
2
LAYER
5
2
100
AcDbSymbolTable
70
2
0
LAYER
5
50
100
AcDbSymbolTableRecord
100
AcDbLayerTableRecord
2
0
70
0
62
7
6
CONTINUOUS
0
ENDTAB
0
TABLE
2
STYLE
5
3
100
AcDbSymbolTable
70
1
0
STYLE
5
11
100
AcDbSymbolTableRecord
100
AcDbTextStyleTableRecord
2
STANDARD
70
0
0
ENDTAB
0
TABLE
2
VIEW
5
6
100
AcDbSymbolTable
70
0
0
ENDTAB
0
TABLE
2
UCS
5
7
100
AcDbSymbolTable
70
0
0
ENDTAB
0
TABLE
2
APPID
5
9
100
AcDbSymbolTable
70
2
0
APPID
5
12
100
AcDbSymbolTableRecord
100
AcDbRegAppTableRecord
2
ACAD
70
0
0
ENDTAB
0
TABLE
2
DIMSTYLE
5
A
100
AcDbSymbolTable
70
1
0
ENDTAB
0
TABLE
2
BLOCK_RECORD
5
1
100
AcDbSymbolTable
70
1
0
BLOCK_RECORD
5
1F
100
AcDbSymbolTableRecord
100
AcDbBlockTableRecord
2
*MODEL_SPACE
0
BLOCK_RECORD
5
1B
100
AcDbSymbolTableRecord
100
AcDbBlockTableRecord
2
*PAPER_SPACE
0
ENDTAB
0
ENDSEC
0
SECTION
2
BLOCKS
0
BLOCK
5
20
100
AcDbEntity
100
AcDbBlockBegin
2
*MODEL_SPACE
0
ENDBLK
5
21
100
AcDbEntity
100
AcDbBlockEnd
0
BLOCK
5
1C
100
AcDbEntity
100
AcDbBlockBegin
2
*PAPER_SPACE
0
ENDBLK
5
1D
100
AcDbEntity
100
AcDbBlockEnd
0
ENDSEC
0
SECTION
2
ENTITIES
0
POINT
5
100
100
AcDbEntity
8
0
100
AcDbPoint
10
0
20
0
30
0
0
POINT
5
101
100
AcDbEntity
8
0
100
AcDbPoint
10
0
20
80
30
0
0
POINT
5
102
100
AcDbEntity
8
0
100
AcDbPoint
10
-175
20
155
30
0
0
POINT
5
103
100
AcDbEntity
8
0
100
AcDbPoint
10
-175
20
65
30
0
0
LINE
5
104
100
AcDbEntity
8
0
100
AcDbLine
10
0
20
0
30
0
11
100
21
0
31
0
0
LINE
5
105
100
AcDbEntity
8
0
100
AcDbLine
10
0
20
0
30
0
11
0
21
75
31
0
0
LINE
5
106
100
AcDbEntity
8
0
100
AcDbLine
10
100
20
0
30
0
11
100
21
75.000001180642968
31
0
0
CIRCLE
5
107
100
AcDbEntity
8
0
100
AcDbCircle
10
-26.791926105759224
20
21.322637761651468
30
0
40
20
210
0
220
0
230
1
0
LWPOLYLINE
5
108
100
AcDbEntity
8
0
100
AcDbPolyline
90
4
70
1
43
0.0
10
123.00088661801118
20
275.2848681050217
10
198.00088661801112
20
275.28486810502176
10
198.00088661801112
20
278.53345406034185
10
123.00088661801114
20
278.58486810502171
0
LWPOLYLINE
5
109
100
AcDbEntity
8
0
100
AcDbPolyline
90
4
70
1
43
0.0
10
119.58677071974394
20
274.95866493990906
10
122.88677071974392
20
274.95866493990906
10
122.88677071974394
20
199.95866493990906
10
119.58677071974394
20
199.95866493990906
0
CIRCLE
5
110
100
AcDbEntity
8
0
100
AcDbCircle
10
-26.38232958121824
20
64.02051725047383
30
0
40
20
210
0
220
0
230
1
0
LINE
5
111
100
AcDbEntity
8
0
100
AcDbLine
10
107.57440611248424
20
290.02555736328077
30
0
11
128.93413407047586
21
290.02555736328077
31
0
0
LINE
5
112
100
AcDbEntity
8
0
100
AcDbLine
10
132.73412012014549
20
290.03585407714513
30
0
11
217.57440611248424
21
290.03585407714513
31
0
0
CIRCLE
5
113
100
AcDbEntity
8
0
100
AcDbCircle
10
100.00000000000003
20
205.00000000000006
30
0
40
1.5000000000000002
210
0
220
0
230
1
0
LINE
5
114
100
AcDbEntity
8
0
100
AcDbLine
10
107.57440611248424
20
290.02555736328077
30
0
11
47.574406112484233
21
290.02555736328077
31
0
0
LINE
5
115
100
AcDbEntity
8
0
100
AcDbLine
10
149.60022214363559
20
180.02555736328074
30
0
11
149.60022214363559
21
256.7994371630017
31
0
0
LINE
5
116
100
AcDbEntity
8
0
100
AcDbLine
10
149.60022214363559
20
256.7994371630017
30
0
11
217.57440611248424
21
256.7994371630017
31
0
0
LINE
5
117
100
AcDbEntity
8
0
100
AcDbLine
10
107.57440611248424
20
180.02555736328074
30
0
11
149.60022214363559
21
180.02555736328074
31
0
0
LINE
5
118
100
AcDbEntity
8
0
100
AcDbLine
10
217.57440611248424
20
290.03585407714513
30
0
11
217.57440611248424
21
256.7994371630017
31
0
0
LINE
5
119
100
AcDbEntity
8
0
100
AcDbLine
10
107.57440611248424
20
180.02555736328074
30
0
11
47.574406112484233
21
180.02555736328074
31
0
0
LWPOLYLINE
5
120
100
AcDbEntity
8
0
100
AcDbPolyline
90
4
70
1
43
0.0
10
32.262041505224524
20
199.95866493990906
10
35.562041505224528
20
199.95866493990906
10
35.562041505224528
20
274.95866493990906
10
32.262041505224545
20
274.95866493990906
0
LWPOLYLINE
5
121
100
AcDbEntity
8
0
100
AcDbPolyline
90
8
70
1
43
0.0
10
32.120348857383618
20
275.2848681050217
10
-42.852074393042656
20
275.28486810502176
10
-42.879651142616346
20
278.58486810502171
10
-55.870032199382926
20
286.08486810502171
10
-57.620032199382926
20
283.05377919177619
10
-44.629651142616339
20
275.55377919177619
10
-42.879651142616346
20
278.58486810502171
10
32.120348857383654
20
278.58486810502171
0
LINE
5
122
100
AcDbEntity
8
0
100
AcDbLine
10
5.5485900813328826
20
180.02555736328074
30
0
11
5.5485900813328826
21
256.7994371630017
31
0
0
LINE
5
123
100
AcDbEntity
8
0
100
AcDbLine
10
5.5485900813328826
20
256.7994371630017
30
0
11
-62.425593887515767
21
256.7994371630017
31
0
0
LINE
5
124
100
AcDbEntity
8
0
100
AcDbLine
10
22.414692104822986
20
290.03585407714513
30
0
11
-62.425593887515767
21
290.03585407714513
31
0
0
LINE
5
125
100
AcDbEntity
8
0
100
AcDbLine
10
-62.425593887515767
20
290.03585407714513
30
0
11
-62.425593887515767
21
256.7994371630017
31
0
0
LINE
5
126
100
AcDbEntity
8
0
100
AcDbLine
10
47.574406112484233
20
180.02555736328074
30
0
11
5.5485900813328826
21
180.02555736328074
31
0
0
LINE
5
127
100
AcDbEntity
8
0
100
AcDbLine
10
26.214692104823001
20
290.02555736328077
30
0
11
47.574406112484233
21
290.02555736328077
31
0
0
CIRCLE
5
128
100
AcDbEntity
8
0
100
AcDbCircle
10
55.148812224968431
20
205.00000000000006
30
0
40
1.5000000000000002
210
0
220
0
230
1
0
LINE
5
129
100
AcDbEntity
8
0
100
AcDbLine
10
0
20
75
30
0
11
25
21
75
31
0
0
LINE
5
130
100
AcDbEntity
8
0
100
AcDbLine
10
25
20
75
30
0
11
25
21
45
31
0
0
LINE
5
131
100
AcDbEntity
8
0
100
AcDbLine
10
25
20
45
30
0
11
32
21
45
31
0
0
LINE
5
132
100
AcDbEntity
8
0
100
AcDbLine
10
32
20
45
30
0
11
32
21
75
31
0
0
LINE
5
133
100
AcDbEntity
8
0
100
AcDbLine
10
100
20
75.000001180642968
30
0
11
75
21
75.000001180642968
31
0
0
LINE
5
134
100
AcDbEntity
8
0
100
AcDbLine
10
75
20
75.000001180642968
30
0
11
75
21
45
31
0
0
LINE
5
135
100
AcDbEntity
8
0
100
AcDbLine
10
75
20
45
30
0
11
68
21
45
31
0
0
LINE
5
136
100
AcDbEntity
8
0
100
AcDbLine
10
68
20
45
30
0
11
68
21
75
31
0
0
LINE
5
137
100
AcDbEntity
8
0
100
AcDbLine
10
68
20
75
30
0
11
32
21
75
31
0
0
LINE
5
138
100
AcDbEntity
8
0
100
AcDbLine
10
4.5924254968025752e-15
20
155
30
0
11
25
21
155
31
0
0
LINE
5
139
100
AcDbEntity
8
0
100
AcDbLine
10
100
20
80
30
0
11
100
21
155.00000118064295
31
0
0
LINE
5
140
100
AcDbEntity
8
0
100
AcDbLine
10
75
20
155.00000118064295
30
0
11
75.000000000000014
21
125
31
0
0
LINE
5
141
100
AcDbEntity
8
0
100
AcDbLine
10
68
20
125
30
0
11
68
21
155
31
0
0
LINE
5
142
100
AcDbEntity
8
0
100
AcDbLine
10
68
20
155
30
0
11
32
21
155
31
0
0
LINE
5
143
100
AcDbEntity
8
0
100
AcDbLine
10
25
20
155
30
0
11
25
21
125
31
0
0
LINE
5
144
100
AcDbEntity
8
0
100
AcDbLine
10
0
20
80
30
0
11
4.5924254968025752e-15
21
155
31
0
0
LINE
5
145
100
AcDbEntity
8
0
100
AcDbLine
10
32
20
125
30
0
11
32
21
155
31
0
0
LINE
5
146
100
AcDbEntity
8
0
100
AcDbLine
10
25
20
125
30
0
11
32
21
125
31
0
0
LINE
5
147
100
AcDbEntity
8
0
100
AcDbLine
10
100
20
155.00000118064295
30
0
11
75
21
155.00000118064295
31
0
0
LINE
5
148
100
AcDbEntity
8
0
100
AcDbLine
10
75.000000000000014
20
125
30
0
11
68
21
125
31
0
0
LINE
5
149
100
AcDbEntity
8
0
100
AcDbLine
10
0
20
80
30
0
11
100
21
80
31
0
0
CIRCLE
5
150
100
AcDbEntity
8
0
100
AcDbCircle
10
-26.38232958121824
20
64.02051725047383
30
0
40
1.4999999999999978
210
0
220
0
230
1
0
CIRCLE
5
151
100
AcDbEntity
8
0
100
AcDbCircle
10
-26.791926105759224
20
21.322637761651468
30
0
40
1.5000000000000004
210
0
220
0
230
1
0
LWPOLYLINE
5
152
100
AcDbEntity
8
0
100
AcDbPolyline
90
4
70
1
43
0.0
10
171.40258520609865
20
247.28780294685922
10
190.10258520609867
20
247.28780294685922
10
190.10258520609867
20
182.78780294685924
10
171.40258520609865
20
182.78780294685924
0
LWPOLYLINE
5
153
100
AcDbEntity
8
0
100
AcDbPolyline
90
4
70
1
43
0.0
10
198.02846336758481
20
278.58486810502171
10
211.01884442435139
20
286.08486810502171
10
212.76884442435141
20
283.05377919177619
10
199.77846336758483
20
275.55377919177619
0
LWPOLYLINE
5
154
100
AcDbEntity
8
0
100
AcDbPolyline
90
4
70
1
43
0.0
10
373.02846336758472
20
153.58486810502171
10
374.77846336758466
20
150.55377919177619
10
387.76884442435187
20
158.05377919177607
10
386.01884442435193
20
161.0848681050216
0
LWPOLYLINE
5
155
100
AcDbEntity
8
0
100
AcDbPolyline
90
4
70
1
43
0.0
10
298.00088661801112
20
153.58486810502171
10
373.00088661801112
20
153.53345406034185
10
373.00088661801112
20
150.28486810502176
10
298.00088661801112
20
150.28486810502173
0
LINE
5
156
100
AcDbEntity
8
0
100
AcDbLine
10
282.57440611248421
20
55.025557363280733
30
0
11
324.60022214363556
21
55.025557363280733
31
0
0
LINE
5
157
100
AcDbEntity
8
0
100
AcDbLine
10
324.60022214363556
20
55.025557363280733
30
0
11
324.60022214363556
21
131.7994371630017
31
0
0
LINE
5
158
100
AcDbEntity
8
0
100
AcDbLine
10
282.57440611248421
20
55.025557363280733
30
0
11
222.57440611248421
21
55.025557363280733
31
0
0
LWPOLYLINE
5
159
100
AcDbEntity
8
0
100
AcDbPolyline
90
8
70
1
43
0.0
10
207.1203488573837
20
153.58486810502171
10
207.12034885738359
20
150.28486810502173
10
132.1479256069573
20
150.28486810502176
10
132.12034885738373
20
153.58486810502174
10
119.12996780061619
20
161.08486810502149
10
117.37996780061621
20
158.05377919177599
10
130.37034885738376
20
150.55377919177621
10
132.12034885738373
20
153.58486810502174
0
LWPOLYLINE
5
160
100
AcDbEntity
8
0
100
AcDbPolyline
90
4
70
1
43
0.0
10
207.26204150522449
20
74.958664939909056
10
210.56204150522447
20
74.958664939909056
10
210.56204150522447
20
149.95866493990906
10
207.26204150522449
20
149.95866493990906
0
LINE
5
161
100
AcDbEntity
8
0
100
AcDbLine
10
197.41469210482296
20
158.03585407714513
30
0
11
197.41469210482293
21
165.03585407714513
31
0
0
LINE
5
162
100
AcDbEntity
8
0
100
AcDbLine
10
307.73412012014541
20
158.03585407714513
30
0
11
307.73412012014546
21
165.03585407714513
31
0
0
LINE
5
163
100
AcDbEntity
8
0
100
AcDbLine
10
201.21469210482297
20
165.02555736328077
30
0
11
201.21469210482297
21
158.03585407714519
31
0
0
LWPOLYLINE
5
164
100
AcDbEntity
8
0
100
AcDbPolyline
90
4
70
1
43
0.0
10
294.58677071974392
20
149.95866493990906
10
297.88677071974394
20
149.95866493990906
10
297.88677071974394
20
74.958664939909056
10
294.58677071974392
20
74.958664939909056
0
LINE
5
165
100
AcDbEntity
8
0
100
AcDbLine
10
303.93413407047581
20
158.03585407714513
30
0
11
307.73412012014541
21
158.03585407714513
31
0
0
LINE
5
166
100
AcDbEntity
8
0
100
AcDbLine
10
197.41469210482293
20
165.03585407714513
30
0
11
112.5744061124842
21
165.03585407714513
31
0
0
LINE
5
167
100
AcDbEntity
8
0
100
AcDbLine
10
180.54859008133286
20
55.025557363280733
30
0
11
180.54859008133286
21
131.7994371630017
31
0
0
LINE
5
168
100
AcDbEntity
8
0
100
AcDbLine
10
222.57440611248421
20
55.025557363280733
30
0
11
180.54859008133286
21
55.025557363280733
31
0
0
LINE
5
169
100
AcDbEntity
8
0
100
AcDbLine
10
201.21469210482297
20
158.03585407714519
30
0
11
197.41469210482296
21
158.03585407714513
31
0
0
LINE
5
170
100
AcDbEntity
8
0
100
AcDbLine
10
201.21469210482297
20
165.02555736328077
30
0
11
222.57440611248421
21
165.02555736328077
31
0
0
CIRCLE
5
171
100
AcDbEntity
8
0
100
AcDbCircle
10
275
20
80.000000000000071
30
0
40
1.5000000000000002
210
0
220
0
230
1
0
LINE
5
172
100
AcDbEntity
8
0
100
AcDbLine
10
303.93413407047581
20
165.02555736328077
30
0
11
303.93413407047581
21
158.03585407714513
31
0
0
LINE
5
173
100
AcDbEntity
8
0
100
AcDbLine
10
282.57440611248421
20
165.02555736328077
30
0
11
222.57440611248421
21
165.02555736328077
31
0
0
CIRCLE
5
174
100
AcDbEntity
8
0
100
AcDbCircle
10
230.1488122249684
20
80.000000000000071
30
0
40
1.5000000000000002
210
0
220
0
230
1
0
LINE
5
175
100
AcDbEntity
8
0
100
AcDbLine
10
282.57440611248421
20
165.02555736328077
30
0
11
303.93413407047581
21
165.02555736328077
31
0
0
LINE
5
176
100
AcDbEntity
8
0
100
AcDbLine
10
112.5744061124842
20
165.03585407714513
30
0
11
112.5744061124842
21
131.7994371630017
31
0
0
LINE
5
177
100
AcDbEntity
8
0
100
AcDbLine
10
392.57440611248421
20
165.03585407714513
30
0
11
392.57440611248421
21
131.7994371630017
31
0
0
LINE
5
178
100
AcDbEntity
8
0
100
AcDbLine
10
324.60022214363556
20
131.7994371630017
30
0
11
392.57440611248421
21
131.7994371630017
31
0
0
LINE
5
179
100
AcDbEntity
8
0
100
AcDbLine
10
180.54859008133286
20
131.7994371630017
30
0
11
112.5744061124842
21
131.7994371630017
31
0
0
LINE
5
180
100
AcDbEntity
8
0
100
AcDbLine
10
307.73412012014546
20
165.03585407714513
30
0
11
392.57440611248421
21
165.03585407714513
31
0
0
LWPOLYLINE
5
181
100
AcDbEntity
8
0
100
AcDbPolyline
90
4
70
1
43
0.0
10
-209.4594587140347
20
253.61399382551832
10
-109.4594587140347
20
253.61399382551832
10
-109.4594587140347
20
238.61399382551832
10
-209.4594587140347
20
238.61399382551832
0
LWPOLYLINE
5
182
100
AcDbEntity
8
0
100
AcDbPolyline
90
4
70
1
43
0.0
10
45.104424249576631
20
200.20832237235845
10
110.10442424957662
20
200.20832237235845
10
110.10442424957662
20
210.20832237235845
10
45.104424249576631
20
210.20832237235845
0
LINE
5
183
100
AcDbEntity
8
0
100
AcDbLine
10
22.414692104822997
20
286.53585407714513
30
0
11
26.214692104823001
21
286.53070572021301
31
0
0
LINE
5
184
100
AcDbEntity
8
0
100
AcDbLine
10
22.414692104822986
20
290.03585407714513
30
0
11
22.414692104822997
21
286.53585407714513
31
0
0
LINE
5
185
100
AcDbEntity
8
0
100
AcDbLine
10
26.214692104823001
20
286.53070572021301
30
0
11
26.214692104823001
21
290.02555736328077
31
0
0
LINE
5
186
100
AcDbEntity
8
0
100
AcDbLine
10
128.93413407047586
20
286.53070572021295
30
0
11
132.73412012014546
21
286.53585407714513
31
0
0
LINE
5
187
100
AcDbEntity
8
0
100
AcDbLine
10
128.93413407047586
20
290.02555736328077
30
0
11
128.93413407047586
21
286.53070572021295
31
0
0
LINE
5
188
100
AcDbEntity
8
0
100
AcDbLine
10
132.73412012014546
20
286.53585407714513
30
0
11
132.73412012014549
21
290.03585407714513
31
0
0
LWPOLYLINE
5
189
100
AcDbEntity
8
0
100
AcDbPolyline
90
4
70
1
43
0.0
10
0
20
300
10
80
20
300
10
80
20
400
10
0
20
400
0
LWPOLYLINE
5
190
100
AcDbEntity
8
0
100
AcDbPolyline
90
4
70
1
43
0.0
10
50
20
365
10
55
20
365
10
55
20
340
10
50
20
340
0
LWPOLYLINE
5
191
100
AcDbEntity
8
0
100
AcDbPolyline
90
4
70
1
43
0.0
10
30.09764686487804
20
364.85006920985654
10
25.09764686487804
20
364.85006920985654
10
25.09764686487804
20
339.85006920985654
10
30.09764686487804
20
339.85006920985654
0
CIRCLE
5
192
100
AcDbEntity
8
0
100
AcDbCircle
10
99.938394863948503
20
364.6919743197426
30
0
40
9.9999999999999947
210
0
220
0
230
1
0
LWPOLYLINE
5
193
100
AcDbEntity
8
0
100
AcDbPolyline
90
4
70
1
43
0.0
10
102.01221820991015
20
363.15052404813582
42
0.37531021572497958
10
102.01221820991044
20
366.67052404813614
10
97.983310169262495
20
366.67052404813649
42
0.37531021572497958
10
97.983310169262197
20
363.15052404813616
0
ARC
5
194
100
AcDbEntity
8
0
100
AcDbCircle
10
99.99776418958632
20
364.91052404813615
30
0
40
2.6749999999999767
210
0
220
0
230
1
100
AcDbArc
50
-41.143252720857113
51
41.143252720847414
0
LWPOLYLINE
5
195
100
AcDbEntity
8
0
100
AcDbPolyline
90
4
70
1
43
0.0
10
97.983310169262197
20
363.15052404813616
10
102.01221820991015
20
363.15052404813582
42
0.37531021572497958
10
102.01221820991044
20
366.67052404813614
10
97.983310169262495
20
366.67052404813649
42
0.37531021572497958
0
LINE
5
196
100
AcDbEntity
8
0
100
AcDbLine
10
97.983310169262197
20
363.15052404813616
30
0
11
102.01221820991015
21
363.15052404813582
31
0
0
LINE
5
197
100
AcDbEntity
8
0
100
AcDbLine
10
102.01221820991044
20
366.67052404813614
30
0
11
97.983310169262495
21
366.67052404813649
31
0
0
ARC
5
198
100
AcDbEntity
8
0
100
AcDbCircle
10
99.99776418958632
20
364.91052404813615
30
0
40
2.6749999999999767
210
0
220
0
230
1
100
AcDbArc
50
138.85674727914289
51
221.14325272084739
0
ARC
5
199
100
AcDbEntity
8
0
100
AcDbCircle
10
99.99776418958632
20
364.91052404813615
30
0
40
2.6749999999999767
210
0
220
0
230
1
100
AcDbArc
50
138.85674727914289
51
221.14325272084739
0
LINE
5
200
100
AcDbEntity
8
0
100
AcDbLine
10
97.983310169262197
20
363.15052404813616
30
0
11
102.01221820991015
21
363.15052404813582
31
0
0
ARC
5
201
100
AcDbEntity
8
0
100
AcDbCircle
10
99.99776418958632
20
364.91052404813615
30
0
40
2.6749999999999767
210
0
220
0
230
1
100
AcDbArc
50
-41.143252720857113
51
41.143252720847414
0
LINE
5
202
100
AcDbEntity
8
0
100
AcDbLine
10
102.01221820991044
20
366.67052404813614
30
0
11
97.983310169262495
21
366.67052404813649
31
0
0
LWPOLYLINE
5
203
100
AcDbEntity
8
0
100
AcDbPolyline
90
4
70
1
43
0.0
10
97.983310169262495
20
341.67052404813649
42
0.37531021572497958
10
97.983310169262197
20
338.15052404813616
10
102.01221820991015
20
338.15052404813582
42
0.37531021572497958
10
102.01221820991044
20
341.67052404813614
0
LWPOLYLINE
5
204
100
AcDbEntity
8
0
100
AcDbPolyline
90
4
70
1
43
0.0
10
97.983310169262197
20
338.15052404813616
10
102.01221820991015
20
338.15052404813582
42
0.37531021572497958
10
102.01221820991044
20
341.67052404813614
10
97.983310169262495
20
341.67052404813649
42
0.37531021572497958
0
ARC
5
205
100
AcDbEntity
8
0
100
AcDbCircle
10
99.99776418958632
20
339.91052404813615
30
0
40
2.6749999999999767
210
0
220
0
230
1
100
AcDbArc
50
138.85674727914289
51
221.14325272084739
0
ARC
5
206
100
AcDbEntity
8
0
100
AcDbCircle
10
99.99776418958632
20
339.91052404813615
30
0
40
2.6749999999999767
210
0
220
0
230
1
100
AcDbArc
50
138.85674727914289
51
221.14325272084739
0
LINE
5
207
100
AcDbEntity
8
0
100
AcDbLine
10
102.01221820991044
20
341.67052404813614
30
0
11
97.983310169262495
21
341.67052404813649
31
0
0
LINE
5
208
100
AcDbEntity
8
0
100
AcDbLine
10
97.983310169262197
20
338.15052404813616
30
0
11
102.01221820991015
21
338.15052404813582
31
0
0
ARC
5
209
100
AcDbEntity
8
0
100
AcDbCircle
10
99.99776418958632
20
339.91052404813615
30
0
40
2.6749999999999767
210
0
220
0
230
1
100
AcDbArc
50
-41.143252720857113
51
41.143252720847414
0
LINE
5
210
100
AcDbEntity
8
0
100
AcDbLine
10
102.01221820991044
20
341.67052404813614
30
0
11
97.983310169262495
21
341.67052404813649
31
0
0
CIRCLE
5
211
100
AcDbEntity
8
0
100
AcDbCircle
10
99.938394863948503
20
339.6919743197426
30
0
40
9.9999999999999947
210
0
220
0
230
1
0
ARC
5
212
100
AcDbEntity
8
0
100
AcDbCircle
10
99.99776418958632
20
339.91052404813615
30
0
40
2.6749999999999767
210
0
220
0
230
1
100
AcDbArc
50
-41.143252720857113
51
41.143252720847414
0
LINE
5
213
100
AcDbEntity
8
0
100
AcDbLine
10
97.983310169262197
20
338.15052404813616
30
0
11
102.01221820991015
21
338.15052404813582
31
0
0
LINE
5
214
100
AcDbEntity
8
0
100
AcDbLine
10
-175
20
155
30
0
11
-175
21
230
31
0
0
LINE
5
215
100
AcDbEntity
8
0
100
AcDbLine
10
-75
20
155
30
0
11
-75
21
230.00000118064295
31
0
0
LINE
5
216
100
AcDbEntity
8
0
100
AcDbLine
10
-99.999999999999886
20
187.95624480636872
30
0
11
-106.9999999999999
21
187.95624480636872
31
0
0
LINE
5
217
100
AcDbEntity
8
0
100
AcDbLine
10
-175
20
230
30
0
11
-150
21
230
31
0
0
LINE
5
218
100
AcDbEntity
8
0
100
AcDbLine
10
-143
20
187.95624480636872
30
0
11
-143
21
230
31
0
0
CIRCLE
5
219
100
AcDbEntity
8
0
100
AcDbCircle
10
-201.38232958121824
20
139.02051725047383
30
0
40
1.4999999999999978
210
0
220
0
230
1
0
LINE
5
220
100
AcDbEntity
8
0
100
AcDbLine
10
-150
20
230
30
0
11
-150
21
187.95624480636872
31
0
0
LINE
5
221
100
AcDbEntity
8
0
100
AcDbLine
10
-150
20
187.95624480636872
30
0
11
-143
21
187.95624480636872
31
0
0
CIRCLE
5
222
100
AcDbEntity
8
0
100
AcDbCircle
10
-201.79192610575922
20
96.322637761651464
30
0
40
1.5000000000000004
210
0
220
0
230
1
0
LINE
5
223
100
AcDbEntity
8
0
100
AcDbLine
10
-75
20
230.00000118064295
30
0
11
-100
21
230.00000118064295
31
0
0
LINE
5
224
100
AcDbEntity
8
0
100
AcDbLine
10
-107
20
230
30
0
11
-143
21
230
31
0
0
LINE
5
225
100
AcDbEntity
8
0
100
AcDbLine
10
-100
20
230.00000118064295
30
0
11
-99.999999999999886
21
187.95624480636872
31
0
0
LINE
5
226
100
AcDbEntity
8
0
100
AcDbLine
10
-175
20
155
30
0
11
-75
21
155
31
0
0
CIRCLE
5
227
100
AcDbEntity
8
0
100
AcDbCircle
10
-201.79192610575922
20
96.322637761651464
30
0
40
20
210
0
220
0
230
1
0
LINE
5
228
100
AcDbEntity
8
0
100
AcDbLine
10
-106.9999999999999
20
187.95624480636872
30
0
11
-107
21
230
31
0
0
CIRCLE
5
229
100
AcDbEntity
8
0
100
AcDbCircle
10
-201.38232958121824
20
139.02051725047383
30
0
40
20
210
0
220
0
230
1
0
LINE
5
230
100
AcDbEntity
8
0
100
AcDbLine
10
-100
20
140.00000118064295
30
0
11
-99.999999999999872
21
97.956244806368716
31
0
0
LINE
5
231
100
AcDbEntity
8
0
100
AcDbLine
10
-75
20
65
30
0
11
-75
21
140.00000118064295
31
0
0
LINE
5
232
100
AcDbEntity
8
0
100
AcDbLine
10
-106.99999999999989
20
97.956244806368716
30
0
11
-107
21
140
31
0
0
LINE
5
233
100
AcDbEntity
8
0
100
AcDbLine
10
-175
20
65
30
0
11
-75
21
65
31
0
0
LINE
5
234
100
AcDbEntity
8
0
100
AcDbLine
10
-75
20
140.00000118064295
30
0
11
-100
21
140.00000118064295
31
0
0
LINE
5
235
100
AcDbEntity
8
0
100
AcDbLine
10
-150
20
140
30
0
11
-150
21
97.956244806368716
31
0
0
LINE
5
236
100
AcDbEntity
8
0
100
AcDbLine
10
-143
20
97.956244806368716
30
0
11
-143
21
140
31
0
0
LINE
5
237
100
AcDbEntity
8
0
100
AcDbLine
10
-150
20
97.956244806368716
30
0
11
-143
21
97.956244806368716
31
0
0
LINE
5
238
100
AcDbEntity
8
0
100
AcDbLine
10
-107
20
140
30
0
11
-143
21
140
31
0
0
LINE
5
239
100
AcDbEntity
8
0
100
AcDbLine
10
-175
20
65.000000000000014
30
0
11
-175
21
140
31
0
0
LINE
5
240
100
AcDbEntity
8
0
100
AcDbLine
10
-175
20
140
30
0
11
-150
21
140
31
0
0
LINE
5
241
100
AcDbEntity
8
0
100
AcDbLine
10
-99.999999999999872
20
97.956244806368716
30
0
11
-106.99999999999989
21
97.956244806368716
31
0
0
ENDSEC
0
SECTION
2
OBJECTS
0
DICTIONARY
5
C
100
AcDbDictionary
3
ACAD_GROUP
350
D
3
ACAD_MLINESTYLE
350
17
0
DICTIONARY
5
D
100
AcDbDictionary
0
DICTIONARY
5
1A
330
C
100
AcDbDictionary
0
DICTIONARY
5
17
100
AcDbDictionary
0
ENDSEC
0
EOF
